<?xml version="1.0" encoding="UTF-8" standalone="no" ?>
<!DOCTYPE svg PUBLIC "-//W3C//DTD SVG 1.1//EN" "http://www.w3.org/Graphics/SVG/1.1/DTD/svg11.dtd">
<svg xmlns="http://www.w3.org/2000/svg" xmlns:xlink="http://www.w3.org/1999/xlink" version="1.1" width="662" height="496.5" viewBox="0 0 662 496.5" xml:space="preserve">
<desc>Created with Fabric.js 3.5.1</desc>
<defs>
</defs>
<rect x="0" y="0" width="100%" height="100%" fill="#000000"></rect>
<g transform="matrix(1 0 0 1 335 243.87)" style=""  >
		<text xml:space="preserve" font-family="Calistoga" font-size="24" font-style="normal" font-weight="normal" style="stroke: none; stroke-width: 1; stroke-dasharray: none; stroke-linecap: butt; stroke-dashoffset: 0; stroke-linejoin: miter; stroke-miterlimit: 4; fill: rgb(255,255,255); fill-rule: nonzero; opacity: 1; white-space: pre;" ><tspan x="-69.46" y="7.54" >SaveMyRyde</tspan></text>
</g>
<g transform="matrix(0.35 0 0 0.35 331 179.49)"  >
<g style=""   >
		<g transform="matrix(1 0 0 1 -89.29 52.56)"  >
<path style="stroke: none; stroke-width: 1; stroke-dasharray: none; stroke-linecap: butt; stroke-dashoffset: 0; stroke-linejoin: miter; stroke-miterlimit: 4; fill: rgb(255,255,255); fill-rule: nonzero; opacity: 1;"  transform=" translate(-71.71, -182.56)" d="M 129.882 182.561 C 129.882 221.851 103.825 253.669 71.7059 253.669 C 39.5871 253.669 13.5294 221.96 13.5294 182.561 C 13.5294 143.162 39.5871 111.453 71.7059 111.453 C 92.1082 111.453 110.075 124.305 120.412 143.732 L 92.1624 163.839 C 90.1146 160.154 87.152 157.064 83.5626 154.869 C 79.9732 152.674 75.8792 151.449 71.6788 151.313 C 57.5541 151.313 46.1083 165.307 46.1083 182.561 C 46.1083 199.815 57.5541 213.808 71.6788 213.808 C 85.8035 213.808 96.8977 200.222 97.2494 183.322 C 111.022 179.925 123.821 176.583 129.476 174.599 C 129.882 177.208 129.882 179.871 129.882 182.561 Z" stroke-linecap="round" />
</g>
		<g transform="matrix(1 0 0 1 -10.89 -22.4)"  >
<path style="stroke: none; stroke-width: 1; stroke-dasharray: none; stroke-linecap: butt; stroke-dashoffset: 0; stroke-linejoin: miter; stroke-miterlimit: 4; fill: rgb(255,255,255); fill-rule: nonzero; opacity: 1;"  transform=" translate(-150.11, -107.6)" d="M 224.588 34.6381 C 221.42 31.8627 217.571 29.9867 213.44 29.2038 C 205.063 27.6917 196.43 28.635 188.573 31.9209 C 173.528 37.7085 159.864 48.2239 147.714 58.4948 C 136.891 67.7332 127.231 78.9551 122.576 92.6224 C 119.77 99.6665 119.702 107.513 122.387 114.604 C 126.717 124.169 138.622 130.391 148.391 132.565 C 145.685 138.162 139.651 141.124 134.076 143.814 C 119.228 151.233 104.858 159.582 91.0529 168.812 C 86.6992 171.562 82.5155 174.574 78.5247 177.833 C 76.8316 179.229 75.2318 180.736 73.7353 182.343 C 73.14 182.995 71.0294 186.528 70.4882 186.691 C 101.498 178.675 144.954 163.269 175.341 153.107 C 179.13 151.987 182.766 150.399 186.165 148.379 C 189.596 146.305 192.119 143.005 193.227 139.14 C 193.66 136.424 193.37 133.641 192.386 131.074 C 191.403 128.507 189.76 126.246 187.626 124.522 C 179.508 117.322 167.657 116.968 158.484 111.534 C 157.203 110.942 156.059 110.088 155.127 109.026 C 154.195 107.963 153.495 106.717 153.072 105.366 C 152.179 100.91 156.346 97.2145 160.324 95.0136 C 175.666 86.8621 193.768 86.536 209.029 77.8411 C 218.608 72.4068 226.888 63.4944 229.134 52.6257 C 230.339 47.7366 229.683 42.5721 227.294 38.1433 C 226.553 36.8581 225.643 35.6791 224.588 34.6381 Z" stroke-linecap="round" />
</g>
		<g transform="matrix(1 0 0 1 -89.27 52.56)"  >
<path style="stroke: none; stroke-width: 1; stroke-dasharray: none; stroke-linecap: butt; stroke-dashoffset: 0; stroke-linejoin: miter; stroke-miterlimit: 4; fill: rgb(255,255,255); fill-rule: nonzero; opacity: 1;"  transform=" translate(-71.73, -182.56)" d="M 71.76 260 C 36.5836 260 8.17181 225.247 8.17181 182.561 C 8.17181 139.874 36.6918 105.121 71.76 105.121 C 106.828 105.121 135.294 139.874 135.294 182.561 C 135.294 225.247 106.828 260 71.76 260 Z M 71.76 107.839 C 38.18 107.839 10.8777 141.368 10.8777 182.561 C 10.8777 223.753 38.18 257.283 71.76 257.283 C 105.34 257.283 132.588 223.753 132.588 182.561 C 132.588 141.368 105.34 107.839 71.76 107.839 Z" stroke-linecap="round" />
</g>
		<g transform="matrix(1 0 0 1 105.56 62.48)"  >
<path style="stroke: none; stroke-width: 1; stroke-dasharray: none; stroke-linecap: butt; stroke-dashoffset: 0; stroke-linejoin: miter; stroke-miterlimit: 4; fill: rgb(255,255,255); fill-rule: nonzero; opacity: 1;"  transform=" translate(-266.56, -192.48)" d="M 266.584 260 C 236.007 260 211.113 229.704 211.113 192.478 C 211.113 155.253 236.007 124.957 266.584 124.957 C 297.16 124.957 322 155.253 322 192.478 C 322 229.704 297.16 260 266.584 260 Z M 266.584 127.674 C 237.495 127.674 213.819 156.748 213.819 192.478 C 213.819 228.209 237.495 257.283 266.584 257.283 C 295.672 257.283 319.294 228.209 319.294 192.478 C 319.294 156.748 295.672 127.674 266.584 127.674 Z" stroke-linecap="round" />
</g>
		<g transform="matrix(1 0 0 1 105.53 62.48)"  >
<path style="stroke: none; stroke-width: 1; stroke-dasharray: none; stroke-linecap: butt; stroke-dashoffset: 0; stroke-linejoin: miter; stroke-miterlimit: 4; fill: rgb(255,255,255); fill-rule: nonzero; opacity: 1;"  transform=" translate(-266.53, -192.48)" d="M 316.588 192.478 C 316.588 226.28 294.184 253.669 266.529 253.669 C 238.875 253.669 216.471 226.28 216.471 192.478 C 216.471 172.235 224.588 154.275 236.9 143.135 L 252.784 171.583 C 248.507 175.834 245.514 181.213 244.152 187.098 C 240.553 202.206 247.642 216.987 260.008 219.704 C 272.374 222.422 285.281 212.857 288.907 197.75 C 292.533 182.642 285.416 167.997 273.051 165.144 C 269.607 164.33 266.009 164.462 262.633 165.524 L 254.515 133.054 C 258.402 131.875 262.442 131.28 266.502 131.288 C 294.238 131.288 316.588 158.677 316.588 192.478 Z" stroke-linecap="round" />
</g>
		<g transform="matrix(1 0 0 1 97.27 -95.95)"  >
<path style="stroke: none; stroke-width: 1; stroke-dasharray: none; stroke-linecap: butt; stroke-dashoffset: 0; stroke-linejoin: miter; stroke-miterlimit: 4; fill: rgb(255,255,255); fill-rule: nonzero; opacity: 1;"  transform=" translate(-258.27, -34.05)" d="M 261.623 55.3349 C 275.158 53.1822 284.628 41.9089 282.774 30.1552 C 280.92 18.4016 268.445 10.6185 254.91 12.7712 C 241.375 14.9238 231.905 26.1972 233.759 37.9508 C 235.613 49.7045 248.088 57.4875 261.623 55.3349 Z" stroke-linecap="round" />
</g>
		<g transform="matrix(1 0 0 1 81.15 0.95)"  >
<path style="stroke: none; stroke-width: 1; stroke-dasharray: none; stroke-linecap: butt; stroke-dashoffset: 0; stroke-linejoin: miter; stroke-miterlimit: 4; fill: rgb(255,255,255); fill-rule: nonzero; opacity: 1;"  transform=" translate(-242.15, -130.95)" d="M 216.471 77.9498 C 214.387 73.1405 267.882 197.315 267.882 194.788 C 267.882 192.261 227.294 67.0812 227.294 67.0812 L 216.471 77.9498 Z" stroke-linecap="round" />
</g>
		<g transform="matrix(1 0 0 1 101.93 -107.16)"  >
<path style="stroke: none; stroke-width: 1; stroke-dasharray: none; stroke-linecap: butt; stroke-dashoffset: 0; stroke-linejoin: miter; stroke-miterlimit: 4; fill: rgb(255,255,255); fill-rule: nonzero; opacity: 1;"  transform=" translate(-262.93, -22.84)" d="M 283.089 40.0725 C 294.238 27.655 286.878 9.77608 271.616 5.40144 C 257.411 1.32569 233.734 9.99343 237.874 28.0082 C 238.74 31.7579 243.286 31.5406 245.315 28.9593 C 247.26 26.1277 249.592 23.5849 252.242 21.4056 C 257.654 17.3841 261.009 19.0688 266.232 21.786 C 270.101 23.7967 274.863 18.4982 271.156 15.4006 C 269.587 17.4385 269.722 19.096 271.535 20.4274 C 274.431 23.9325 278.841 19.9654 278.327 16.4603 L 278.11 15.1017 L 276.243 19.6937 L 274.89 21.6772 L 282.467 19.6122 L 282.25 19.3405 L 281.601 24.2857 L 281.98 23.9597 L 275.188 22.1664 L 273.916 24.6118 C 271.211 29.0679 278.138 33.1709 280.925 28.7419 C 281.923 27.5506 282.634 26.143 283 24.6297 C 283.366 23.1164 283.378 21.5385 283.035 20.0198 C 282.836 19.3392 282.467 18.7215 281.961 18.2261 C 281.456 17.7307 280.832 17.3744 280.149 17.1915 C 279.467 17.0086 278.749 17.0052 278.065 17.1817 C 277.381 17.3582 276.753 17.7087 276.243 18.1993 L 275.865 18.4982 C 275.231 19.1371 274.825 19.9692 274.713 20.8641 C 274.6 21.759 274.786 22.6662 275.242 23.4434 L 275.459 23.7423 C 277.678 26.6497 283.17 26.1334 283.008 21.6772 C 282.819 16.2429 278.57 7.79254 272.185 12.6563 C 271.442 13.1437 270.865 13.8472 270.532 14.6727 C 270.198 15.4981 270.123 16.4062 270.318 17.2754 L 270.507 18.634 L 277.299 14.667 C 274.458 11.189 269.398 8.14578 265.23 11.7324 C 264.556 12.3245 264.019 13.0582 263.658 13.8816 C 263.297 14.7051 263.121 15.5981 263.141 16.4976 C 263.162 17.3971 263.379 18.281 263.778 19.0868 C 264.176 19.8927 264.746 20.6008 265.447 21.161 L 270.345 14.7485 C 265.095 12.0313 258.682 8.41748 252.756 11.1618 C 246.831 13.9062 242.122 19.7481 238.334 24.7477 L 245.748 25.7258 C 243.042 14.0692 262.362 11.0803 269.479 13.1453 C 278.516 15.8625 284.578 26.2149 277.38 34.2034 C 273.889 38.0889 279.599 43.8765 283.116 39.9638 L 283.089 40.0725 Z" stroke-linecap="round" />
</g>
		<g transform="matrix(1 0 0 1 101.46 -109.51)"  >
<path style="stroke: none; stroke-width: 1; stroke-dasharray: none; stroke-linecap: butt; stroke-dashoffset: 0; stroke-linejoin: miter; stroke-miterlimit: 4; fill: rgb(255,255,255); fill-rule: nonzero; opacity: 1;"  transform=" translate(-262.46, -20.49)" d="M 275.784 11.4607 C 264.5 3.82549 257.302 8.03709 249.482 18.1178 C 246.398 22.1392 251.593 27.8452 255.246 23.9054 C 256.653 22.3566 270.128 8.60772 272.915 14.9659 L 276.406 8.82507 C 272.185 8.82507 270.994 6.86871 267.152 9.88476 L 271.102 8.82507 C 255.922 6.56982 248.941 16.2701 236.656 23.1174 L 242.772 26.6497 C 241.581 13.5801 258.087 5.94487 269.208 8.3088 C 272.016 8.83267 274.643 10.0724 276.837 11.909 C 279.031 13.7456 280.718 16.1174 281.736 18.7971 C 283.089 22.7913 284.578 35.3446 275.215 31.758 C 270.318 29.8831 268.207 37.7629 273.051 39.6106 C 295.374 48.1425 293.778 14.1507 280.762 4.74932 C 264.527 -7.01601 232.598 4.12436 234.762 26.6497 C 234.775 27.3599 234.97 28.0547 235.33 28.6662 C 235.69 29.2776 236.202 29.7849 236.815 30.1381 C 237.429 30.4914 238.123 30.6787 238.831 30.6816 C 239.538 30.6845 240.234 30.503 240.851 30.1548 C 246.939 26.7856 251.864 21.1067 258.168 18.1993 C 263.932 15.4821 269.452 18.5526 274.214 14.667 L 270.264 15.7267 C 272.316 16.2891 274.404 16.7068 276.514 16.9766 C 277.224 16.9689 277.919 16.7759 278.532 16.4164 C 279.144 16.0569 279.653 15.5435 280.008 14.9265 C 280.363 14.3096 280.552 13.6104 280.556 12.8979 C 280.56 12.1854 280.38 11.484 280.032 10.8629 C 273.727 -3.56521 255.814 11.352 249.591 18.1178 L 255.354 23.9054 C 260.144 17.683 264.121 13.3084 271.806 18.471 C 276.135 21.4056 280.194 14.3409 275.892 11.4336 L 275.784 11.4607 Z" stroke-linecap="round" />
</g>
		<g transform="matrix(1 0 0 1 -99.93 -50.37)"  >
<path style="stroke: none; stroke-width: 1; stroke-dasharray: none; stroke-linecap: butt; stroke-dashoffset: 0; stroke-linejoin: miter; stroke-miterlimit: 4; fill: rgb(255,255,255); fill-rule: nonzero; opacity: 1;"  transform=" translate(-61.07, -79.63)" d="M 122.144 75.8848 C 120.114 78.7921 118.436 81.3191 117.083 83.3841 H 0 L 122.144 75.8848 Z" stroke-linecap="round" />
</g>
		<g transform="matrix(1 0 0 1 -72.88 -74.78)"  >
<path style="stroke: none; stroke-width: 1; stroke-dasharray: none; stroke-linecap: butt; stroke-dashoffset: 0; stroke-linejoin: miter; stroke-miterlimit: 4; fill: rgb(255,255,255); fill-rule: nonzero; opacity: 1;"  transform=" translate(-88.12, -55.22)" d="M 141.058 51.5118 C 138.866 53.9845 136.782 56.4842 134.78 58.9297 H 35.1765 L 141.058 51.5118 Z" stroke-linecap="round" />
</g>
		<g transform="matrix(1 0 0 1 -50.44 -90.57)"  >
<path style="stroke: none; stroke-width: 1; stroke-dasharray: none; stroke-linecap: butt; stroke-dashoffset: 0; stroke-linejoin: miter; stroke-miterlimit: 4; fill: rgb(255,255,255); fill-rule: nonzero; opacity: 1;"  transform=" translate(-110.56, -39.43)" d="M 156.184 36.2412 C 153.856 38.2791 151.583 40.4257 149.392 42.6266 H 64.9412 L 156.184 36.2412 Z" stroke-linecap="round" />
</g>
		<g transform="matrix(1 0 0 1 -20.7 -106.49)"  >
<path style="stroke: none; stroke-width: 1; stroke-dasharray: none; stroke-linecap: butt; stroke-dashoffset: 0; stroke-linejoin: miter; stroke-miterlimit: 4; fill: rgb(255,255,255); fill-rule: nonzero; opacity: 1;"  transform=" translate(-140.3, -23.51)" d="M 180.482 20.6991 C 176.561 22.1719 172.806 24.0572 169.28 26.3237 H 100.118 L 180.482 20.6991 Z" stroke-linecap="round" />
</g>
</g>
</g>
</svg>