<svg width="800" height="200" viewBox="0 0 800 200" fill="none" xmlns="http://www.w3.org/2000/svg">
  <!-- Logo Icon -->
  <g transform="translate(50, 15) scale(0.85)">
    <!-- Background Circle -->
    <circle cx="85" cy="85" r="80" fill="url(#gradient)" />

    <!-- Car Silhouette -->
    <path d="M127.33 95.33c0 2.76-2.24 5-5 5h-74c-2.76 0-5-2.24-5-5v-10c0-2.76 2.24-5 5-5h13.33l6.67-16.67h34l6.67 16.67h13.33c2.76 0 5 2.24 5 5v10z" fill="white"/>
    <circle cx="56.67" cy="95.33" r="8.33" fill="#1E40AF" stroke="white" stroke-width="2"/>
    <circle cx="114" cy="95.33" r="8.33" fill="#1E40AF" stroke="white" stroke-width="2"/>

    <!-- Road Line -->
    <path d="M30 106.67h110.67" stroke="white" stroke-width="2.67" stroke-linecap="round" stroke-dasharray="6.67 5"/>

    <!-- Roof Line -->
    <path d="M60 63.67l11.67-10h26.67l11.67 10" stroke="white" stroke-width="2.67" stroke-linecap="round" stroke-linejoin="round"/>

    <!-- Star/Sparkle Effect -->
    <path d="M120.67 62l2.67-2.67 2.67 2.67-2.67 2.67-2.67-2.67z" fill="white"/>
    <circle cx="123.33" cy="59.33" r="1" fill="#F97316"/>

    <!-- Shield Shape for Trust -->
    <path d="M87.33 47.67c-3.33-1.67-6.67-1.67-10 0-1.67 3.33-1.67 6.67 0 10 3.33 1.67 6.67 1.67 10 0 1.67-3.33 1.67-6.67 0-10z" fill="#F97316" opacity="0.7"/>
  </g>

  <!-- Text "SaveMyRyde" -->
  <g transform="translate(200, 110)">
    <!-- Save -->
    <path d="M15.392 0.72C20.72 0.72 24.736 3.104 27.44 7.872L18.752 13.536C17.504 11.488 16.208 10.464 14.864 10.464C13.568 10.464 12.896 11.04 12.896 12.176C12.896 13.024 13.28 13.632 14.048 14C14.864 14.368 16.352 14.8 18.512 15.296C20.672 15.744 22.432 16.336 23.792 17.072C25.152 17.76 26.32 18.832 27.296 20.288C28.272 21.744 28.76 23.536 28.76 25.664C28.76 29.104 27.488 31.92 24.944 34.112C22.448 36.304 19.264 37.4 15.392 37.4C12.32 37.4 9.584 36.688 7.184 35.264C4.832 33.84 3.056 31.728 1.856 28.928L11.008 23.696C11.728 25.456 12.4 26.672 13.024 27.344C13.696 28.016 14.528 28.352 15.52 28.352C17.248 28.352 18.112 27.584 18.112 26.048C18.112 25.024 17.696 24.272 16.864 23.792C16.08 23.312 14.592 22.848 12.4 22.4C10.208 21.904 8.448 21.328 7.12 20.672C5.792 19.968 4.64 18.896 3.664 17.456C2.688 16.016 2.2 14.224 2.2 12.08C2.2 8.8 3.376 6.128 5.728 4.064C8.08 1.952 11.328 0.896 15.472 0.896L15.392 0.72Z" fill="#0F172A"/>
    <!-- a -->
    <path d="M37.0542 1.488L49.0222 1.536C52.4622 1.536 55.0862 2.352 56.8942 3.984C58.7022 5.568 59.6062 7.744 59.6062 10.512C59.6062 12.384 59.1982 14.032 58.3822 15.456C57.5662 16.88 56.4142 17.888 54.9262 18.48V18.576C56.6862 19.024 58.0222 19.936 58.9342 21.312C59.8942 22.64 60.3742 24.32 60.3742 26.352C60.3742 29.424 59.3662 31.84 57.3502 33.6C55.3342 35.312 52.5102 36.168 48.8782 36.168H37.0542V1.488ZM47.7262 15.024C48.8302 15.024 49.6942 14.752 50.3182 14.208C50.9422 13.664 51.2542 12.912 51.2542 11.952C51.2542 11.04 50.9422 10.32 50.3182 9.792C49.6942 9.264 48.8302 9 47.7262 9H45.3102V15.024H47.7262ZM48.2542 28.704C49.4542 28.704 50.3902 28.4 51.0622 27.792C51.7342 27.184 52.0702 26.336 52.0702 25.248C52.0702 24.16 51.7342 23.312 51.0622 22.704C50.3902 22.096 49.4542 21.792 48.2542 21.792H45.3102V28.704H48.2542Z" fill="#0F172A"/>
    <!-- v -->
    <path d="M69.7606 1.488H78.6406L89.1526 36.168H80.5126L79.0246 30.432H69.3766L67.8886 36.168H59.2486L69.7606 1.488ZM77.1526 23.52L74.2086 12.096L71.2646 23.52H77.1526Z" fill="#0F172A"/>
    <!-- e -->
    <path d="M98.5793 1.488H119.139V9.456H106.835V14.256H117.939V22.224H106.835V28.2H119.139V36.168H98.5793V1.488Z" fill="#F97316"/>
    <!-- M -->
    <path d="M133.708 1.488H143.644L150.892 18.96H151.036V1.488H159.484V36.168H149.596L142.3 18.672H142.156V36.168H133.708V1.488Z" fill="#0F172A"/>
    <!-- y -->
    <path d="M172.481 1.488H181.361L191.873 36.168H183.233L181.745 30.432H172.097L170.609 36.168H161.969L172.481 1.488ZM179.873 23.52L176.929 12.096L173.985 23.52H179.873Z" fill="#0F172A"/>
    <!-- R -->
    <path d="M200.299 1.488H213.211C216.843 1.488 219.659 2.496 221.659 4.512C223.659 6.528 224.659 9.264 224.659 12.72C224.659 16.176 223.659 18.912 221.659 20.928C219.659 22.944 216.843 23.952 213.211 23.952H208.747V36.168H200.299V1.488ZM212.395 15.984C213.547 15.984 214.459 15.696 215.131 15.12C215.803 14.496 216.139 13.68 216.139 12.672C216.139 11.664 215.803 10.848 215.131 10.224C214.459 9.6 213.547 9.288 212.395 9.288H208.747V15.984H212.395Z" fill="#F97316"/>
    <!-- y -->
    <path d="M235.146 1.488H244.026L254.538 36.168H245.898L244.41 30.432H234.762L233.274 36.168H224.634L235.146 1.488ZM242.538 23.52L239.594 12.096L236.65 23.52H242.538Z" fill="#0F172A"/>
    <!-- d -->
    <path d="M263.013 1.488H275.685C279.125 1.488 281.797 2.544 283.701 4.656C285.605 6.768 286.557 9.792 286.557 13.728C286.557 17.568 285.597 20.544 283.677 22.656C281.757 24.768 279.093 25.824 275.685 25.824H271.461V36.168H263.013V1.488ZM274.869 17.856C276.021 17.856 276.933 17.472 277.605 16.704C278.277 15.936 278.613 14.928 278.613 13.68C278.613 12.432 278.277 11.424 277.605 10.656C276.933 9.888 276.021 9.504 274.869 9.504H271.461V17.856H274.869Z" fill="#0F172A"/>
    <!-- e -->
    <path d="M297.09 1.488H317.65V9.456H305.346V14.256H316.45V22.224H305.346V28.2H317.65V36.168H297.09V1.488Z" fill="#F97316"/>
  </g>

  <!-- Tagline -->
  <text x="400" y="150" text-anchor="middle" font-family="Arial, sans-serif" font-size="14" font-weight="bold" fill="#334155">
    Kenya's Premier Vehicle Marketplace
  </text>

  <!-- Gradient Definitions -->
  <defs>
    <linearGradient id="gradient" x1="0%" y1="0%" x2="100%" y2="100%">
      <stop offset="0%" stop-color="#F97316"/>
      <stop offset="50%" stop-color="#EA580C"/>
      <stop offset="100%" stop-color="#C2410C"/>
    </linearGradient>
  </defs>
</svg>
