<svg width="512" height="512" viewBox="0 0 512 512" fill="none" xmlns="http://www.w3.org/2000/svg">
  <!-- Background Circle -->
  <circle cx="256" cy="256" r="240" fill="url(#gradient)" />

  <!-- Car Silhouette -->
  <path d="M382 286c0 8.284-6.716 15-15 15H145c-8.284 0-15-6.716-15-15v-30c0-8.284 6.716-15 15-15h40l20-50h102l20 50h40c8.284 0 15 6.716 15 15v30z" fill="white"/>
  <circle cx="170" cy="286" r="25" fill="#1E40AF" stroke="white" stroke-width="6"/>
  <circle cx="342" cy="286" r="25" fill="#1E40AF" stroke="white" stroke-width="6"/>

  <!-- Road Line -->
  <path d="M90 320h332" stroke="white" stroke-width="8" stroke-linecap="round" stroke-dasharray="20 15"/>

  <!-- Roof Line -->
  <path d="M180 191l35-30h82l35 30" stroke="white" stroke-width="8" stroke-linecap="round" stroke-linejoin="round"/>

  <!-- Text Placeholder (for favicon this won't be visible) -->
  <path d="M153 350h206" opacity="0.01" stroke="white" stroke-width="1"/>

  <!-- Star/Sparkle Effect -->
  <path d="M362 186l8-8 8 8-8 8-8-8z" fill="white"/>
  <circle cx="370" cy="178" r="3" fill="#F97316"/>

  <!-- Shield Shape for Trust -->
  <path d="M262 143c-10-5-20-5-30 0-5 10-5 20 0 30 10 5 20 5 30 0 5-10 5-20 0-30z" fill="#F97316" opacity="0.7"/>

  <!-- Gradient Definition -->
  <defs>
    <linearGradient id="gradient" x1="0%" y1="0%" x2="100%" y2="100%">
      <stop offset="0%" stop-color="#F97316"/>
      <stop offset="50%" stop-color="#EA580C"/>
      <stop offset="100%" stop-color="#C2410C"/>
    </linearGradient>
  </defs>
</svg>
