<svg width="32" height="32" viewBox="0 0 32 32" fill="none" xmlns="http://www.w3.org/2000/svg">
  <!-- Background Circle -->
  <circle cx="16" cy="16" r="15" fill="url(#gradient)" />

  <!-- Car Silhouette - Simplified for favicon -->
  <path d="M24 18c0 0.552-0.448 1-1 1H9c-0.552 0-1-0.448-1-1v-2c0-0.552 0.448-1 1-1h3l1.5-3h5l1.5 3h3c0.552 0 1 0.448 1 1v2z" fill="white"/>
  <circle cx="11" cy="18" r="1.5" fill="#1E40AF" stroke="white" stroke-width="0.5"/>
  <circle cx="21" cy="18" r="1.5" fill="#1E40AF" stroke="white" stroke-width="0.5"/>

  <!-- Road Line - Simplified -->
  <path d="M6 20h20" stroke="white" stroke-width="0.5" stroke-linecap="round" stroke-dasharray="1 1"/>

  <!-- Roof Line - Simplified -->
  <path d="M12 12l2-1.5h4l2 1.5" stroke="white" stroke-width="0.5" stroke-linecap="round" stroke-linejoin="round"/>

  <!-- Gradient Definition -->
  <defs>
    <linearGradient id="gradient" x1="0%" y1="0%" x2="100%" y2="100%">
      <stop offset="0%" stop-color="#F97316"/>
      <stop offset="50%" stop-color="#EA580C"/>
      <stop offset="100%" stop-color="#C2410C"/>
    </linearGradient>
  </defs>
</svg>
